<svg xmlns="http://www.w3.org/2000/svg" viewBox="0 0 64 64" role="img" aria-label="QobuzSync">
  <defs>
    <linearGradient id="bg" x1="8" y1="8" x2="56" y2="56" gradientUnits="userSpaceOnUse">
      <stop offset="0" stop-color="#111a3c"/>
      <stop offset="0.56" stop-color="#122c45"/>
      <stop offset="1" stop-color="#27115a"/>
    </linearGradient>
    <linearGradient id="mark" x1="15" y1="15" x2="48" y2="49" gradientUnits="userSpaceOnUse">
      <stop offset="0" stop-color="#00f2fe"/>
      <stop offset="0.5" stop-color="#2cc8ff"/>
      <stop offset="1" stop-color="#8a16ff"/>
    </linearGradient>
  </defs>
  <rect width="64" height="64" rx="16" fill="url(#bg)"/>
  <circle cx="32" cy="32" r="24" fill="#090b1a" opacity="0.42"/>
  <path fill="url(#mark)" d="M40.8 13.8v25.5c0 5.5-4.8 10-10.8 10-5 0-9-2.9-9-6.5s4-6.5 9-6.5c2 0 3.8.5 5.3 1.4V20.1l-14.9 3.4v-6.6l20.4-4.7z"/>
  <path fill="#ffffff" opacity="0.92" d="M44.3 30.1c2.8.6 5.2 1.8 7.2 3.6l-3 3.7c-1.3-1.1-2.7-1.9-4.2-2.3v-5z"/>
</svg>
